<?xml version="1.0" encoding="UTF-8"?>
<svg width="1344px" height="37px" viewBox="0 0 1344 37" version="1.1" xmlns="http://www.w3.org/2000/svg" xmlns:xlink="http://www.w3.org/1999/xlink">
    <!-- Generator: Sketch 53 (72520) - https://sketchapp.com -->
    <title>Group 4 Copy</title>
    <desc>Created with Sketch.</desc>
    <g id="Page-1" stroke="none" stroke-width="1" fill="none" fill-rule="evenodd">
        <g id="Cry4" transform="translate(-45.000000, -872.000000)">
            <g id="Group-4-Copy" transform="translate(44.000000, 871.000000)">
                <g id="Group-2">
                    <path d="M25.1469004,29.6158798 L1308.5,29.6158798" id="Line-2" stroke="#FFFFFF" opacity="0.599888393" stroke-linecap="square" transform="translate(666.500000, 29.500000) scale(1, -1) rotate(360.000000) translate(-666.500000, -29.500000) "></path>
                    <g id="Group" transform="translate(17.500000, 29.500000) scale(1, -1) rotate(360.000000) translate(-17.500000, -29.500000) translate(10.000000, 22.000000)" fill="#000000" stroke="#FFFFFF">
                        <circle id="Oval" cx="7.22785798" cy="7.22785798" r="7.22785798"></circle>
                    </g>
                    <g id="Group-Copy-2" opacity="0.599818638" transform="translate(1114.500000, 29.500000) scale(1, -1) rotate(360.000000) translate(-1114.500000, -29.500000) translate(1107.000000, 22.000000)" fill="#000000" stroke="#FFFFFF" stroke-width="1.5">
                        <circle id="Oval" cx="7.22785798" cy="7.22785798" r="7.22785798"></circle>
                    </g>
                    <g id="Group-Copy-4" opacity="0.599818638" transform="translate(919.500000, 29.500000) scale(1, -1) rotate(360.000000) translate(-919.500000, -29.500000) translate(912.000000, 22.000000)" fill="#FFFFFF" stroke="#FFFFFF" stroke-width="1.5">
                        <circle id="Oval" cx="7.22785798" cy="7.22785798" r="7.22785798"></circle>
                    </g>
                    <g id="Group-Copy-3" opacity="0.599818638" transform="translate(1308.500000, 29.500000) scale(1, -1) rotate(360.000000) translate(-1308.500000, -29.500000) translate(1301.000000, 22.000000)" fill="#000000" stroke="#FFFFFF" stroke-width="1.5">
                        <circle id="Oval" cx="7.22785798" cy="7.22785798" r="7.22785798"></circle>
                    </g>
                    <text id="MARIA’S-STORY" font-family="SFUIText-Bold, SF UI Text" font-size="12" font-weight="bold" letter-spacing="1.03999996" fill="#FFFFFF">
                        <tspan x="140" y="11">MARIA’S STORY</tspan>
                    </text>
                    <text id="HOME" font-family="SFUIText-Regular, SF UI Text" font-size="10" font-weight="normal" letter-spacing="0.8666667" fill="#FFFFFF">
                        <tspan x="0.852115819" y="11">HOME</tspan>
                    </text>
                    <text id="THE-MAP" opacity="0.599818638" font-family="SFUIText-Regular, SF UI Text" font-size="10" font-weight="normal" letter-spacing="0.8666667" fill="#FFFFFF">
                        <tspan x="890" y="10">THE MAP</tspan>
                    </text>
                    <text id="DONATION-IMPACT" opacity="0.599818638" font-family="SFUIText-Regular, SF UI Text" font-size="10" font-weight="normal" letter-spacing="0.8666667" fill="#FFFFFF">
                        <tspan x="1061" y="10">DONATION IMPACT</tspan>
                    </text>
                    <text id="DONATE-NOW" opacity="0.599818638" font-family="SFUIText-Regular, SF UI Text" font-size="10" font-weight="normal" letter-spacing="0.8666667" fill="#FFFFFF">
                        <tspan x="1269" y="10">DONATE NOW</tspan>
                    </text>
                    <g id="Group-Copy" transform="translate(340.500000, 29.500000) scale(1, -1) rotate(360.000000) translate(-340.500000, -29.500000) translate(333.000000, 22.000000)"></g>
                    <g id="Group-Copy-6" transform="translate(473.000000, 30.000000) scale(1, -1) rotate(360.000000) translate(-473.000000, -30.000000) translate(468.000000, 25.000000)"></g>
                    <g id="Group-Copy-7" transform="translate(538.000000, 30.000000) scale(1, -1) rotate(360.000000) translate(-538.000000, -30.000000) translate(533.000000, 25.000000)"></g>
                    <g id="Group-Copy-8" transform="translate(602.000000, 30.000000) scale(1, -1) rotate(360.000000) translate(-602.000000, -30.000000) translate(597.000000, 25.000000)"></g>
                    <g id="Group-Copy-11" transform="translate(667.000000, 30.000000) scale(1, -1) rotate(360.000000) translate(-667.000000, -30.000000) translate(662.000000, 25.000000)"></g>
                    <g id="Group-Copy-10" transform="translate(732.000000, 30.000000) scale(1, -1) rotate(360.000000) translate(-732.000000, -30.000000) translate(727.000000, 25.000000)"></g>
                    <g id="Group-Copy-9" transform="translate(504.500000, 29.500000) scale(1, -1) rotate(360.000000) translate(-504.500000, -29.500000) translate(185.000000, 22.000000)" stroke="#FFFFFF" stroke-width="1.5">
                        <circle id="7" fill="#000000" opacity="0.600144159" cx="633.818572" cy="6.81857199" r="4.81857199"></circle>
                        <circle id="6" fill="#000000" opacity="0.600144159" cx="544.818572" cy="6.81857199" r="4.81857199"></circle>
                        <circle id="5" fill="#000000" opacity="0.600144159" cx="455.818572" cy="6.81857199" r="4.81857199"></circle>
                        <circle id="4" fill="#000000" opacity="0.600144159" cx="365.818572" cy="6.81857199" r="4.81857199"></circle>
                        <circle id="3" fill="#000000" opacity="0.600144159" cx="276.818572" cy="6.81857199" r="4.81857199"></circle>
                        <circle id="2" fill="#000000" opacity="0.600144159" cx="187.818572" cy="6.81857199" r="4.81857199"></circle>
                        <circle id="1" fill="#000000" opacity="0.600144159" cx="98.818572" cy="6.81857199" r="4.81857199"></circle>
                        <circle id="start" fill="#FFFFFF" cx="7.22785798" cy="7.22785798" r="7.22785798"></circle>
                    </g>
                </g>
            </g>
        </g>
    </g>
</svg>
